<svg width="272" height="71" viewBox="0 0 272 71" fill="none" xmlns="http://www.w3.org/2000/svg">
<path d="M14.0793 11.3H8.84734V26H5.61934V11.3H0.387344V8.648H14.0793V11.3ZM30.978 8.648V26H27.738V18.416H19.59V26H16.35V8.648H19.59V16.112H27.738V8.648H30.978ZM38.0822 11.216V16.028H44.1542V18.512H38.0822V23.42H45.7862V26H34.8422V8.648H45.7862V11.216H38.0822ZM69.8908 17.324C69.8908 18.596 69.6788 19.764 69.2548 20.828C68.8308 21.892 68.2348 22.808 67.4668 23.576C66.6988 24.344 65.7748 24.94 64.6948 25.364C63.6148 25.788 62.4148 26 61.0948 26H54.4828V8.648H61.0948C62.4148 8.648 63.6148 8.864 64.6948 9.296C65.7748 9.72 66.6988 10.316 67.4668 11.084C68.2348 11.844 68.8308 12.756 69.2548 13.82C69.6788 14.884 69.8908 16.052 69.8908 17.324ZM66.5788 17.324C66.5788 16.372 66.4508 15.52 66.1948 14.768C65.9468 14.008 65.5828 13.368 65.1028 12.848C64.6308 12.32 64.0548 11.916 63.3748 11.636C62.7028 11.356 61.9428 11.216 61.0948 11.216H57.7228V23.432H61.0948C61.9428 23.432 62.7028 23.292 63.3748 23.012C64.0548 22.732 64.6308 22.332 65.1028 21.812C65.5828 21.284 65.9468 20.644 66.1948 19.892C66.4508 19.132 66.5788 18.276 66.5788 17.324ZM77.9846 16.904C78.5926 16.904 79.1206 16.828 79.5686 16.676C80.0246 16.524 80.3966 16.316 80.6846 16.052C80.9806 15.78 81.2006 15.46 81.3446 15.092C81.4886 14.724 81.5606 14.32 81.5606 13.88C81.5606 13 81.2686 12.324 80.6846 11.852C80.1086 11.38 79.2246 11.144 78.0326 11.144H75.9686V16.904H77.9846ZM86.2886 26H83.3726C82.8206 26 82.4206 25.784 82.1726 25.352L78.5246 19.796C78.3886 19.588 78.2366 19.44 78.0686 19.352C77.9086 19.264 77.6686 19.22 77.3486 19.22H75.9686V26H72.7406V8.648H78.0326C79.2086 8.648 80.2166 8.772 81.0566 9.02C81.9046 9.26 82.5966 9.6 83.1326 10.04C83.6766 10.48 84.0766 11.008 84.3326 11.624C84.5886 12.232 84.7166 12.904 84.7166 13.64C84.7166 14.224 84.6286 14.776 84.4526 15.296C84.2846 15.816 84.0366 16.288 83.7086 16.712C83.3886 17.136 82.9886 17.508 82.5086 17.828C82.0366 18.148 81.4966 18.4 80.8886 18.584C81.0966 18.704 81.2886 18.848 81.4646 19.016C81.6406 19.176 81.8006 19.368 81.9446 19.592L86.2886 26ZM97.3305 19.448L95.2185 13.676C95.1145 13.42 95.0065 13.116 94.8945 12.764C94.7825 12.412 94.6705 12.032 94.5585 11.624C94.4545 12.032 94.3465 12.416 94.2345 12.776C94.1225 13.128 94.0145 13.436 93.9105 13.7L91.8105 19.448H97.3305ZM103.03 26H100.534C100.254 26 100.026 25.932 99.8505 25.796C99.6745 25.652 99.5425 25.476 99.4545 25.268L98.1585 21.728H90.9705L89.6745 25.268C89.6105 25.452 89.4865 25.62 89.3025 25.772C89.1185 25.924 88.8905 26 88.6185 26H86.0985L92.9265 8.648H96.2145L103.03 26ZM126.766 8.648L121.378 26H118.462L114.67 14.144C114.566 13.856 114.47 13.504 114.382 13.088C114.334 13.288 114.286 13.476 114.238 13.652C114.19 13.828 114.138 13.992 114.082 14.144L110.254 26H107.326L101.95 8.648H104.65C104.93 8.648 105.162 8.716 105.346 8.852C105.538 8.98 105.666 9.156 105.73 9.38L108.682 19.76C108.746 20.016 108.806 20.296 108.862 20.6C108.926 20.896 108.99 21.208 109.054 21.536C109.118 21.2 109.186 20.884 109.258 20.588C109.338 20.292 109.422 20.016 109.51 19.76L112.918 9.38C112.982 9.196 113.106 9.028 113.29 8.876C113.482 8.724 113.714 8.648 113.986 8.648H114.934C115.214 8.648 115.442 8.716 115.618 8.852C115.794 8.988 115.926 9.164 116.014 9.38L119.41 19.76C119.578 20.256 119.73 20.828 119.866 21.476C119.97 20.844 120.086 20.272 120.214 19.76L123.166 9.38C123.214 9.18 123.334 9.008 123.526 8.864C123.726 8.72 123.962 8.648 124.234 8.648H126.766ZM132.137 26H128.897V8.648H132.137V26ZM150.65 8.648V26H148.994C148.738 26 148.522 25.96 148.346 25.88C148.178 25.792 148.014 25.648 147.854 25.448L138.794 13.88C138.842 14.408 138.866 14.896 138.866 15.344V26H136.022V8.648H137.714C137.85 8.648 137.966 8.656 138.062 8.672C138.166 8.68 138.254 8.704 138.326 8.744C138.406 8.776 138.482 8.828 138.554 8.9C138.626 8.964 138.706 9.052 138.794 9.164L147.89 20.78C147.866 20.5 147.846 20.224 147.83 19.952C147.814 19.68 147.806 19.428 147.806 19.196V8.648H150.65ZM168.818 17.3V24.32C167.938 24.968 166.998 25.444 165.998 25.748C165.006 26.044 163.942 26.192 162.806 26.192C161.39 26.192 160.106 25.972 158.954 25.532C157.81 25.092 156.83 24.48 156.014 23.696C155.206 22.912 154.582 21.976 154.142 20.888C153.702 19.8 153.482 18.612 153.482 17.324C153.482 16.02 153.694 14.824 154.118 13.736C154.542 12.648 155.142 11.712 155.918 10.928C156.702 10.144 157.65 9.536 158.762 9.104C159.874 8.672 161.122 8.456 162.506 8.456C163.21 8.456 163.866 8.512 164.474 8.624C165.09 8.736 165.658 8.892 166.178 9.092C166.706 9.284 167.186 9.52 167.618 9.8C168.05 10.08 168.446 10.388 168.806 10.724L167.882 12.188C167.738 12.42 167.55 12.564 167.318 12.62C167.086 12.668 166.834 12.608 166.562 12.44C166.298 12.288 166.034 12.136 165.77 11.984C165.506 11.832 165.21 11.7 164.882 11.588C164.562 11.476 164.198 11.384 163.79 11.312C163.39 11.24 162.926 11.204 162.398 11.204C161.542 11.204 160.766 11.348 160.07 11.636C159.382 11.924 158.794 12.336 158.306 12.872C157.818 13.408 157.442 14.052 157.178 14.804C156.914 15.556 156.782 16.396 156.782 17.324C156.782 18.316 156.922 19.204 157.202 19.988C157.49 20.764 157.89 21.424 158.402 21.968C158.922 22.504 159.546 22.916 160.274 23.204C161.002 23.484 161.814 23.624 162.71 23.624C163.35 23.624 163.922 23.556 164.426 23.42C164.93 23.284 165.422 23.1 165.902 22.868V19.724H163.718C163.51 19.724 163.346 19.668 163.226 19.556C163.114 19.436 163.058 19.292 163.058 19.124V17.3H168.818ZM189.68 21.908C189.856 21.908 190.012 21.976 190.148 22.112L191.42 23.492C190.716 24.364 189.848 25.032 188.816 25.496C187.792 25.96 186.56 26.192 185.12 26.192C183.832 26.192 182.672 25.972 181.64 25.532C180.616 25.092 179.74 24.48 179.012 23.696C178.284 22.912 177.724 21.976 177.332 20.888C176.948 19.8 176.756 18.612 176.756 17.324C176.756 16.02 176.964 14.828 177.38 13.748C177.796 12.66 178.38 11.724 179.132 10.94C179.892 10.156 180.796 9.548 181.844 9.116C182.892 8.676 184.052 8.456 185.324 8.456C186.588 8.456 187.708 8.664 188.684 9.08C189.668 9.496 190.504 10.04 191.192 10.712L190.112 12.212C190.048 12.308 189.964 12.392 189.86 12.464C189.764 12.536 189.628 12.572 189.452 12.572C189.332 12.572 189.208 12.54 189.08 12.476C188.952 12.404 188.812 12.32 188.66 12.224C188.508 12.12 188.332 12.008 188.132 11.888C187.932 11.768 187.7 11.66 187.436 11.564C187.172 11.46 186.864 11.376 186.512 11.312C186.168 11.24 185.768 11.204 185.312 11.204C184.536 11.204 183.824 11.344 183.176 11.624C182.536 11.896 181.984 12.296 181.52 12.824C181.056 13.344 180.696 13.984 180.44 14.744C180.184 15.496 180.056 16.356 180.056 17.324C180.056 18.3 180.192 19.168 180.464 19.928C180.744 20.688 181.12 21.328 181.592 21.848C182.064 22.368 182.62 22.768 183.26 23.048C183.9 23.32 184.588 23.456 185.324 23.456C185.764 23.456 186.16 23.432 186.512 23.384C186.872 23.336 187.2 23.26 187.496 23.156C187.8 23.052 188.084 22.92 188.348 22.76C188.62 22.592 188.888 22.388 189.152 22.148C189.232 22.076 189.316 22.02 189.404 21.98C189.492 21.932 189.584 21.908 189.68 21.908ZM202.799 19.448L200.687 13.676C200.583 13.42 200.475 13.116 200.363 12.764C200.251 12.412 200.139 12.032 200.027 11.624C199.923 12.032 199.815 12.416 199.703 12.776C199.591 13.128 199.483 13.436 199.379 13.7L197.279 19.448H202.799ZM208.499 26H206.003C205.723 26 205.495 25.932 205.319 25.796C205.143 25.652 205.011 25.476 204.923 25.268L203.627 21.728H196.439L195.143 25.268C195.079 25.452 194.955 25.62 194.771 25.772C194.587 25.924 194.359 26 194.087 26H191.567L198.395 8.648H201.683L208.499 26ZM224.923 8.648V26H223.267C223.011 26 222.795 25.96 222.619 25.88C222.451 25.792 222.287 25.648 222.127 25.448L213.067 13.88C213.115 14.408 213.139 14.896 213.139 15.344V26H210.295V8.648H211.987C212.123 8.648 212.239 8.656 212.335 8.672C212.439 8.68 212.527 8.704 212.599 8.744C212.679 8.776 212.755 8.828 212.827 8.9C212.899 8.964 212.979 9.052 213.067 9.164L222.163 20.78C222.139 20.5 222.119 20.224 222.103 19.952C222.087 19.68 222.079 19.428 222.079 19.196V8.648H224.923ZM243.655 8.648L236.647 26H233.731L226.723 8.648H229.315C229.595 8.648 229.823 8.716 229.999 8.852C230.175 8.988 230.307 9.164 230.395 9.38L234.487 19.964C234.623 20.308 234.751 20.688 234.871 21.104C234.999 21.512 235.119 21.94 235.231 22.388C235.327 21.94 235.431 21.512 235.543 21.104C235.655 20.688 235.779 20.308 235.915 19.964L239.983 9.38C240.047 9.196 240.171 9.028 240.355 8.876C240.547 8.724 240.779 8.648 241.051 8.648H243.655ZM253.237 19.448L251.125 13.676C251.021 13.42 250.913 13.116 250.801 12.764C250.689 12.412 250.577 12.032 250.465 11.624C250.361 12.032 250.253 12.416 250.141 12.776C250.029 13.128 249.921 13.436 249.817 13.7L247.717 19.448H253.237ZM258.937 26H256.441C256.161 26 255.933 25.932 255.757 25.796C255.581 25.652 255.449 25.476 255.361 25.268L254.065 21.728H246.877L245.581 25.268C245.517 25.452 245.393 25.62 245.209 25.772C245.025 25.924 244.797 26 244.525 26H242.005L248.833 8.648H252.121L258.937 26ZM269.973 11.804C269.877 11.972 269.773 12.096 269.661 12.176C269.557 12.248 269.425 12.284 269.265 12.284C269.097 12.284 268.913 12.224 268.713 12.104C268.521 11.976 268.289 11.836 268.017 11.684C267.745 11.532 267.425 11.396 267.057 11.276C266.697 11.148 266.269 11.084 265.773 11.084C265.325 11.084 264.933 11.14 264.597 11.252C264.261 11.356 263.977 11.504 263.745 11.696C263.521 11.888 263.353 12.12 263.241 12.392C263.129 12.656 263.073 12.948 263.073 13.268C263.073 13.676 263.185 14.016 263.409 14.288C263.641 14.56 263.945 14.792 264.321 14.984C264.697 15.176 265.125 15.348 265.605 15.5C266.085 15.652 266.577 15.816 267.081 15.992C267.585 16.16 268.077 16.36 268.557 16.592C269.037 16.816 269.465 17.104 269.841 17.456C270.217 17.8 270.517 18.224 270.741 18.728C270.973 19.232 271.089 19.844 271.089 20.564C271.089 21.348 270.953 22.084 270.681 22.772C270.417 23.452 270.025 24.048 269.505 24.56C268.993 25.064 268.365 25.464 267.621 25.76C266.877 26.048 266.025 26.192 265.065 26.192C264.513 26.192 263.969 26.136 263.433 26.024C262.897 25.92 262.381 25.768 261.885 25.568C261.397 25.368 260.937 25.128 260.505 24.848C260.073 24.568 259.689 24.256 259.353 23.912L260.301 22.364C260.381 22.252 260.485 22.16 260.613 22.088C260.741 22.008 260.877 21.968 261.021 21.968C261.221 21.968 261.437 22.052 261.669 22.22C261.901 22.38 262.177 22.56 262.497 22.76C262.817 22.96 263.189 23.144 263.613 23.312C264.045 23.472 264.561 23.552 265.161 23.552C266.081 23.552 266.793 23.336 267.297 22.904C267.801 22.464 268.053 21.836 268.053 21.02C268.053 20.564 267.937 20.192 267.705 19.904C267.481 19.616 267.181 19.376 266.805 19.184C266.429 18.984 266.001 18.816 265.521 18.68C265.041 18.544 264.553 18.396 264.057 18.236C263.561 18.076 263.073 17.884 262.593 17.66C262.113 17.436 261.685 17.144 261.309 16.784C260.933 16.424 260.629 15.976 260.397 15.44C260.173 14.896 260.061 14.228 260.061 13.436C260.061 12.804 260.185 12.188 260.433 11.588C260.689 10.988 261.057 10.456 261.537 9.992C262.017 9.528 262.609 9.156 263.313 8.876C264.017 8.596 264.825 8.456 265.737 8.456C266.761 8.456 267.705 8.616 268.569 8.936C269.433 9.256 270.169 9.704 270.777 10.28L269.973 11.804Z" fill="white"/>
<path d="M233.555 52.5C237.667 52.5 239.838 49.1767 236.22 47.222C232.732 45.3366 227.376 43.5418 220.295 41.9101C206.817 38.8043 187.738 36.439 165.635 35.1335C143.533 33.8281 119.472 33.6455 96.7034 34.6104C79.0472 35.3587 62.8281 36.769 49.3301 38.7114C47.2896 39.005 47.3368 41.7601 49.3793 42.0389V42.0389C49.5738 42.0655 49.769 42.0607 49.9619 42.0245C63.193 39.539 80.8196 37.7605 100.497 36.9266C120.317 36.0866 141.263 36.2455 160.504 37.382C179.745 38.5184 196.353 40.5775 208.086 43.2812C213.698 44.5742 218.064 45.9848 221.093 47.4655C224.787 49.2711 229.444 52.5 233.555 52.5V52.5Z" fill="#2FDFDF"/>
</svg>
